<?xml version="1.0" encoding="UTF-8" standalone="no"?>
<svg
   xmlns:dc="http://purl.org/dc/elements/1.1/"
   xmlns:cc="http://creativecommons.org/ns#"
   xmlns:rdf="http://www.w3.org/1999/02/22-rdf-syntax-ns#"
   xmlns:svg="http://www.w3.org/2000/svg"
   xmlns="http://www.w3.org/2000/svg"
   viewBox="0 0 519.33331 132"
   height="132"
   width="519.33331"
   xml:space="preserve"
   id="svg2"
   version="1.1"><metadata
     id="metadata8"><rdf:RDF><cc:Work
         rdf:about=""><dc:format>image/svg+xml</dc:format><dc:type
           rdf:resource="http://purl.org/dc/dcmitype/StillImage" /></cc:Work></rdf:RDF></metadata><defs
     id="defs6"><clipPath
       id="clipPath18"
       clipPathUnits="userSpaceOnUse"><path
         id="path16"
         d="M 0,99 H 389.5 V 0 H 0 Z" /></clipPath></defs><g
     transform="matrix(1.3333333,0,0,-1.3333333,0,132)"
     id="g10"><g
       id="g12"><g
         clip-path="url(#clipPath18)"
         id="g14"><g
           transform="translate(82.4889,86.8828)"
           id="g20"><path
             id="path22"
             style="fill:#ffffff;fill-opacity:1;fill-rule:nonzero;stroke:none"
             d="m 0,0 -2.661,0.414 c -3.658,0.559 -7.737,1.086 -12.114,1.409 -7.68,0.7 -15.661,1.071 -23.855,1.071 -13.413,0 -26.23,-0.989 -38.109,-2.797 v -0.218 l 0.016,-16.402 v -0.002 c 0.003,-0.316 0.011,-0.625 0.017,-0.937 0.006,-0.318 0.013,-0.634 0.022,-0.95 0.003,-0.118 0.004,-0.239 0.008,-0.357 v -0.01 c 0.021,-0.664 0.051,-1.318 0.087,-1.967 0.003,-0.064 0.005,-0.128 0.009,-0.191 v -0.007 c 0.018,-0.311 0.036,-0.621 0.056,-0.928 0,-0.002 0,-0.004 0.001,-0.006 0.01,-0.148 0.022,-0.294 0.032,-0.442 0.009,-0.111 0.016,-0.221 0.025,-0.332 1.726,-21.471 10.492,-34.1 18.027,-41.809 9.253,-9.461 18.502,-12.728 18.889,-12.863 l 0.981,-0.335 0.986,0.318 c 0.388,0.125 9.654,3.196 18.923,12.476 7.755,7.765 16.874,21.433 18.406,43.468 0,0.002 0.001,0.003 0.001,0.004 0.002,0.042 0.005,0.083 0.007,0.125 0.044,0.635 0.083,1.276 0.113,1.926 v 0.009 c 0.006,0.114 0.01,0.231 0.013,0.346 0.057,1.309 0.093,2.64 0.095,4.006 z" /></g><g
           transform="translate(81.2514,56.9972)"
           id="g24"><path
             id="path26"
             style="fill:#c71e25;fill-opacity:1;fill-rule:nonzero;stroke:none"
             d="M 0,0 C 1.129,6.373 1.255,13.376 1.255,13.376 V 29.91 c -12.01,1.855 -25.023,2.869 -38.614,2.869 -13.413,0 -26.264,-0.988 -38.142,-2.797 V 13.448 c 0,0 -0.002,-6.877 1.127,-13.249 10e-4,-0.005 10e-4,-0.01 0.002,-0.015 1.481,0.545 3.194,0.748 4.479,0.764 V 0.96 c 3.221,0.015 5.611,-1.162 5.611,-1.162 0,0 5.314,-2.616 10.762,0 5.448,2.621 10.764,0 10.764,0 0,0 5.309,-2.616 10.761,0 5.446,2.621 10.76,0 10.76,0 0,0 5.309,-2.616 10.763,0 1.867,0.899 3.715,1.177 5.347,1.162 h 0.037 0.011 C -2.729,0.96 -0.836,0.334 0,0" /></g><g
           transform="translate(115.3817,27.9429)"
           id="g28"><path
             id="path30"
             style="fill:#23498c;fill-opacity:1;fill-rule:nonzero;stroke:none"
             d="m 0,0 h 3.048 v -9.647 c 0,-4.504 -2.871,-5.977 -6.118,-5.977 -3.247,0 -6.117,1.473 -6.117,5.977 V 0 h 3.048 v -9.775 c 0,-2.497 1.015,-3.37 3.069,-3.37 2.053,0 3.07,0.873 3.07,3.37 z" /></g><g
           transform="translate(138.3468,12.5323)"
           id="g32"><path
             id="path34"
             style="fill:#23498c;fill-opacity:1;fill-rule:nonzero;stroke:none"
             d="M 0,0 V 15.411 H 3.18 L 9.451,4.909 h 0.045 v 10.502 h 2.871 V 0 H 9.429 L 2.916,10.972 H 2.87 V 0 Z" /></g><path
           id="path36"
           style="fill:#23498c;fill-opacity:1;fill-rule:nonzero;stroke:none"
           d="m 171.866,27.943 h 3.048 V 12.532 h -3.048 z" /><g
           transform="translate(194.5242,27.9429)"
           id="g38"><path
             id="path40"
             style="fill:#23498c;fill-opacity:1;fill-rule:nonzero;stroke:none"
             d="M 0,0 H 3.004 L 5.831,-11.355 H 5.873 L 8.834,0 h 3.003 L 7.619,-15.411 H 4.217 Z" /></g><g
           transform="translate(225.6601,12.5323)"
           id="g42"><path
             id="path44"
             style="fill:#23498c;fill-opacity:1;fill-rule:nonzero;stroke:none"
             d="M 0,0 V 15.411 H 10.556 V 12.934 H 3.048 V 9.263 H 8.502 V 6.786 H 3.048 V 2.477 h 7.751 V 0 Z" /></g><g
           transform="translate(259.2908,21.1971)"
           id="g46"><path
             id="path48"
             style="fill:#23498c;fill-opacity:1;fill-rule:nonzero;stroke:none"
             d="m 0,0 h 2.253 c 2.386,0 3.114,0.726 3.114,2.177 0,1.453 -0.906,2.179 -2.584,2.179 H 0 Z M -3.048,-8.665 V 6.746 h 6.36 c 3.622,0 5.081,-2.029 5.102,-4.569 0.022,-1.899 -0.972,-3.435 -2.913,-3.97 l 3.51,-6.872 H 5.631 L 2.628,-2.39 H 0 v -6.275 z" /></g><g
           transform="translate(295.728,23.8449)"
           id="g50"><path
             id="path52"
             style="fill:#23498c;fill-opacity:1;fill-rule:nonzero;stroke:none"
             d="m 0,0 c -0.465,1.195 -1.415,2.005 -2.851,2.005 -1.324,0 -2.273,-0.512 -2.273,-1.705 0,-2.65 8.214,-2.093 8.214,-7.087 0,-3.158 -2.054,-4.739 -5.588,-4.739 -2.604,0 -5.057,1.41 -5.961,3.652 l 2.515,1.065 c 0.731,-1.45 1.681,-2.41 3.469,-2.41 1.525,0 2.695,0.552 2.695,2.047 0,3.031 -8.216,2.433 -8.216,7.172 0,2.753 2.386,4.311 5.145,4.311 2.562,0 4.684,-1.239 5.632,-3.479 z" /></g><path
           id="path54"
           style="fill:#23498c;fill-opacity:1;fill-rule:nonzero;stroke:none"
           d="m 318.944,27.943 h 3.047 V 12.532 h -3.047 z" /><g
           transform="translate(353.2145,27.9633)"
           id="g56"><path
             id="path58"
             style="fill:#23498c;fill-opacity:1;fill-rule:nonzero;stroke:none"
             d="m 0,0 v -2.475 h -4.172 v -12.956 h -3.049 v 12.956 h -4.172 V 0 Z" /></g><g
           transform="translate(376.0726,21.8381)"
           id="g60"><path
             id="path62"
             style="fill:#23498c;fill-opacity:1;fill-rule:nonzero;stroke:none"
             d="M 0,0 2.738,6.105 H 5.917 L 1.523,-3.159 v -6.147 h -3.047 v 6.147 l -4.395,9.264 h 3.181 z" /></g><g
           transform="translate(33.3119,68.1018)"
           id="g64"><path
             id="path66"
             style="fill:#ffffff;fill-opacity:1;fill-rule:nonzero;stroke:none"
             d="m 0,0 h -20.596 v 11.482 h 2.755 v 1.49 l 7.782,0.989 7.518,-0.846 V 11.482 H 0 Z" /></g><g
           transform="translate(70.9503,35.4794)"
           id="g68"><path
             id="path70"
             style="fill:#23498c;fill-opacity:1;fill-rule:nonzero;stroke:none"
             d="m 0,0 c -5.452,-2.614 -10.765,0 -10.765,0 0,0 -5.312,2.62 -10.765,0 -5.444,-2.614 -10.758,0 -10.758,0 0,0 -5.312,2.62 -10.765,0 -5.45,-2.614 -10.762,0 -10.762,0 0,0 -1.638,0.502 -3.337,0.85 1.989,-3.696 4.134,-6.846 6.341,-9.547 2.043,-0.268 5.216,-0.214 7.758,1.009 5.453,2.619 10.765,0 10.765,0 0,0 5.314,-2.62 10.758,0 5.453,2.619 10.765,0 10.765,0 0,0 3.967,-1.501 7.887,-1.077 2.212,2.759 4.405,6.01 6.39,9.801 C 2.516,0.845 0.952,0.469 0,0" /></g><g
           transform="translate(75.5189,52.0984)"
           id="g72"><path
             id="path74"
             style="fill:#23498c;fill-opacity:1;fill-rule:nonzero;stroke:none"
             d="m 0,0 c -1.636,0.018 -3.507,-0.257 -5.387,-1.168 -5.453,-2.614 -10.76,0 -10.76,0 0,0 -5.316,2.623 -10.762,0 -4.728,-2.266 -10.059,-0.342 -10.76,0 0,0 -5.316,2.623 -10.765,0 -5.447,-2.614 -10.761,0 -10.761,0 0,0 -2.238,1.104 -5.298,1.163 v -0.007 c -0.954,0.018 -1.991,-0.079 -3.058,-0.33 0.156,-0.649 0.318,-1.288 0.488,-1.916 0.002,-0.008 0.004,-0.016 0.006,-0.023 0.163,-0.604 0.332,-1.196 0.507,-1.779 0.013,-0.043 0.026,-0.085 0.039,-0.13 0.167,-0.554 0.34,-1.098 0.518,-1.637 0.019,-0.058 0.038,-0.119 0.058,-0.178 0.184,-0.549 0.373,-1.091 0.567,-1.623 0.007,-0.02 0.013,-0.039 0.02,-0.059 0.367,0.037 0.732,0.057 1.082,0.061 v 0.011 c 3.216,0.015 5.605,-1.156 5.605,-1.156 0,0 5.311,-2.625 10.76,0 5.453,2.612 10.764,0 10.764,0 0,0 5.315,-2.625 10.759,0 5.452,2.612 10.767,0 10.767,0 0,0 5.312,-2.625 10.762,0 1.863,0.889 3.712,1.171 5.339,1.156 h 0.045 0.019 c 0.348,0 1.312,-0.058 1.847,-0.097 0.4,1.097 0.781,2.227 1.139,3.391 10e-4,0.003 0.003,0.007 0.004,0.011 0.175,0.569 0.344,1.148 0.508,1.733 0.009,0.03 0.016,0.058 0.025,0.087 0.154,0.555 0.303,1.117 0.448,1.687 0.007,0.031 0.014,0.062 0.023,0.093 C 3.448,-0.414 1.449,0 0,0" /></g><g
           transform="translate(61.211,19.5242)"
           id="g76"><path
             id="path78"
             style="fill:#23498c;fill-opacity:1;fill-rule:nonzero;stroke:none"
             d="m 0,0 c -0.442,0.182 -1.025,0.435 -1.025,0.435 0,0 -5.312,2.62 -10.765,0 -5.444,-2.621 -10.759,0 -10.759,0 0,0 -5.312,2.62 -10.764,0 -0.152,-0.074 -0.541,-0.252 -0.833,-0.383 8.162,-7.281 15.561,-9.897 15.906,-10.017 l 0.982,-0.336 0.986,0.319 C -15.922,-9.869 -8.309,-7.346 0,0" /></g><g
           transform="translate(49.2265,56.647)"
           id="g80"><path
             id="path82"
             style="fill:#fbbd0d;fill-opacity:1;fill-rule:nonzero;stroke:none"
             d="m 0,0 c 5.446,2.622 10.76,0 10.76,0 0,0 5.309,-2.557 10.763,0.059 0.256,0.124 0.529,0.29 0.783,0.391 L 29.919,4.858 17.537,2.634 24.211,10.141 15.047,6.065 21.393,18.41 11.617,8.556 13.18,19.198 7.583,9.866 5.466,24.244 3.345,9.866 l -5.578,9.497 1.544,-10.807 -9.778,9.192 6.349,-11.683 -9.088,3.948 6.597,-7.379 -12.383,2.224 8.732,-4.902 C -8.817,-0.756 -4.459,-2.139 0,0" /></g><g
           transform="translate(219.1854,55.6174)"
           id="g84"><path
             id="path86"
             style="fill:#23498c;fill-opacity:1;fill-rule:nonzero;stroke:none"
             d="m 0,0 c 0,3.314 0.28,4.952 1.196,6.786 1.481,3.103 4.513,5.008 7.901,5.008 2.328,0 4.16,-0.917 5.431,-2.821 C 16.065,6.665 16.769,4.634 16.783,0 Z m 9.945,14.122 c -2.611,0 -5.645,-0.917 -8.537,-2.61 -2.292,-1.315 -4.043,-2.795 -5.319,-4.561 -1.942,-2.687 -2.79,-6.035 -2.79,-10.462 0,-4.444 0.985,-8.253 2.962,-10.934 2.495,-3.39 6.675,-5.497 11.38,-5.86 l -0.008,-0.013 c 3.398,-0.291 5.579,0 8.158,0.982 2.577,0.982 4.871,2.709 6.788,4.93 l -1.674,1.623 c -1.227,-1.338 -3.304,-2.716 -5.634,-3.348 -0.887,-0.241 -1.842,-0.441 -2.885,-0.498 -0.063,0 -0.122,-0.002 -0.185,-0.002 -4.585,0 -8.395,2.047 -10.369,5.502 -1.34,2.325 -1.832,4.302 -1.975,8.39 h 23.021 0.183 v 3.46 c 0,8.11 -5.219,13.401 -13.116,13.401" /></g><g
           transform="translate(288.6273,55.6174)"
           id="g88"><path
             id="path90"
             style="fill:#23498c;fill-opacity:1;fill-rule:nonzero;stroke:none"
             d="m 0,0 c 0,3.314 0.28,4.952 1.198,6.786 1.481,3.103 4.513,5.008 7.899,5.008 2.328,0 4.162,-0.917 5.431,-2.821 C 16.066,6.665 16.771,4.634 16.785,0 Z M 9.945,14.122 C 7.334,14.122 4.302,13.205 1.41,11.512 -0.884,10.197 -2.633,8.717 -3.909,6.951 -5.852,4.264 -6.701,0.916 -6.701,-3.511 c 0,-4.444 0.987,-8.253 2.964,-10.934 2.493,-3.39 6.673,-5.497 11.379,-5.86 l -0.009,-0.013 c 3.4,-0.291 5.579,0 8.16,0.982 2.577,0.982 4.869,2.709 6.786,4.93 l -1.672,1.623 c -1.227,-1.338 -3.306,-2.716 -5.636,-3.348 -0.885,-0.241 -1.841,-0.441 -2.885,-0.498 -0.061,0 -0.122,-0.002 -0.185,-0.002 -4.585,0 -8.394,2.047 -10.367,5.502 -1.34,2.325 -1.834,4.302 -1.975,8.39 h 23.019 0.183 v 3.46 c 0,8.11 -5.219,13.401 -13.116,13.401" /></g><g
           transform="translate(163.838,45.4059)"
           id="g92"><path
             id="path94"
             style="fill:#23498c;fill-opacity:1;fill-rule:nonzero;stroke:none"
             d="m 0,0 c -2.045,-2.892 -6.487,-5.573 -9.239,-5.573 -2.821,0 -5.29,2.612 -5.29,5.643 0,2.609 1.412,5.08 3.527,6.418 C -9.239,7.547 -5.359,8.534 0,9.311 Z M 7.618,-6.699 C 5.927,-6.631 5.643,-6.064 5.643,-2.61 v 12.908 c 0,0.274 -0.003,0.541 -0.008,0.806 -0.002,1.441 -0.003,2.8 -0.003,3.156 0,2.07 -0.24,3.764 -0.79,5.079 -0.548,1.315 -1.35,2.356 -2.408,3.122 -1.053,0.788 -2.231,1.299 -3.526,1.538 -1.292,0.238 -2.811,0.356 -4.55,0.356 -1.264,0 -2.618,-0.123 -3.942,-0.526 -0.044,-0.013 -0.084,-0.027 -0.127,-0.04 -0.86,-0.23 -1.703,-0.533 -2.532,-0.911 -0.116,-0.052 -0.226,-0.108 -0.338,-0.162 -0.489,-0.237 -0.975,-0.49 -1.454,-0.78 l -3.738,-2.257 v -4.585 l 2.612,-1.271 0.916,2.963 c 0.602,1.525 0.956,2.479 1.572,3.051 10e-4,-0.001 -10e-4,0.002 0,0 0.749,0.76 2.812,2.294 7.005,1.953 C -2.885,21.564 0,20.075 0,11.567 L -6.98,10.298 C -16.574,8.534 -20.595,5.22 -20.595,-0.917 c 0,-5.502 3.316,-8.674 8.888,-8.674 1.27,0 2.468,0.211 2.962,0.561 L 0,-2.961 0.007,-8.958 c 0.018,0.002 0.035,0.004 0.052,0.004 h 9.98 c 0.018,0 0.037,-0.002 0.054,-0.004 v 2.116 z" /></g><g
           transform="translate(334.902,45.4059)"
           id="g96"><path
             id="path98"
             style="fill:#23498c;fill-opacity:1;fill-rule:nonzero;stroke:none"
             d="m 0,0 c -2.045,-2.892 -6.488,-5.573 -9.239,-5.573 -2.822,0 -5.29,2.612 -5.29,5.643 0,2.609 1.411,5.08 3.526,6.418 C -9.239,7.547 -5.36,8.534 0,9.311 Z M 7.618,-6.699 C 5.925,-6.631 5.643,-6.064 5.643,-2.61 v 12.908 c 0,0.274 -0.004,0.541 -0.008,0.806 -0.002,1.441 -0.003,2.8 -0.003,3.156 0,2.07 -0.24,3.764 -0.792,5.079 -0.548,1.315 -1.348,2.356 -2.408,3.122 -1.052,0.788 -2.23,1.299 -3.524,1.538 -1.293,0.238 -2.811,0.356 -4.549,0.356 -1.265,0 -2.618,-0.123 -3.943,-0.526 -0.045,-0.013 -0.085,-0.027 -0.127,-0.04 -0.861,-0.23 -1.703,-0.533 -2.531,-0.911 -0.117,-0.052 -0.227,-0.108 -0.34,-0.162 -0.488,-0.237 -0.974,-0.49 -1.454,-0.78 l -3.738,-2.257 v -4.585 l 2.612,-1.271 0.915,2.963 c 0.604,1.525 0.958,2.479 1.573,3.051 10e-4,-0.001 0,0.002 0,0 0.751,0.76 2.812,2.294 7.005,1.953 C -2.885,21.564 0,20.075 0,11.567 L -6.981,10.298 C -16.574,8.534 -20.596,5.22 -20.596,-0.917 c 0,-5.502 3.316,-8.674 8.889,-8.674 1.269,0 2.468,0.211 2.962,0.561 L 0,-2.961 0.008,-8.958 c 0.016,0.002 0.033,0.004 0.051,0.004 h 10.256 c 0.016,0 0.036,-0.002 0.054,-0.004 v 2.116 z" /></g><g
           transform="translate(137.9845,48.791)"
           id="g100"><path
             id="path102"
             style="fill:#23498c;fill-opacity:1;fill-rule:nonzero;stroke:none"
             d="m 0,0 -0.846,-3.526 c -0.636,-2.751 -1.907,-4.231 -2.328,-4.585 -0.919,-0.776 -5.021,-1.269 -13.413,-1.269 -2.54,0 -4.162,0.142 -5.997,0.565 v 36.428 c 0,5.571 0.353,6.136 3.599,6.348 l 3.384,0.21 v 2.117 h -0.003 v 0.003 h -20.665 v -0.275 h 0.002 v -1.845 l 3.386,-0.21 c 3.245,-0.212 3.598,-0.777 3.598,-6.348 V -4.993 c 0,-2.044 -0.634,-3.596 -1.764,-4.159 l -2.575,-1.13 v -1.127 h -0.002 v -0.93 h 0.002 v -0.004 c 0.024,0.002 0.048,0.004 0.072,0.004 h 22.486 c 0.157,0 0.313,-0.004 0.47,-0.004 0.772,0 1.294,0 1.816,0.004 H 1.333 L 3.02,0 Z" /></g><g
           transform="translate(279.4321,38.7752)"
           id="g104"><path
             id="path106"
             style="fill:#23498c;fill-opacity:1;fill-rule:nonzero;stroke:none"
             d="m 0,0 c -2.397,0.143 -2.612,0.567 -2.612,5.078 v 13.614 c 0,8.25 -3.879,12.272 -11.777,12.272 -2.611,0 -4.091,-0.494 -5.571,-1.764 l -5.361,-4.656 v 23.983 10e-4 0.106 l -0.467,0.5 -11.868,-1.119 v -1.919 c 0.62,-0.045 1.436,-0.127 2.443,-0.25 1.007,-0.122 1.714,-0.326 2.111,-0.615 0.556,-0.378 1.003,-0.554 1.347,-1.308 0.326,-0.715 0.492,-1.428 0.509,-2.143 V 5.078 c 0,-4.443 -0.211,-4.935 -2.608,-5.078 l -3.174,-0.211 v -1.177 h -0.002 v -0.935 h 0.002 v -0.004 c 0.029,0.002 0.059,0.004 0.091,0.004 h 17.309 c 0.031,0 0.06,-0.002 0.091,-0.004 v 2.116 L -22.713,0 c -2.397,0.143 -2.608,0.635 -2.608,5.078 v 14.953 c 0,3.175 4.655,6.63 8.957,6.63 4.726,0 7.827,-3.526 7.827,-8.957 V -2.327 c 0.019,0.002 0.039,0.004 0.058,0.004 h 11.31 c 0.02,0 0.039,-0.002 0.059,-0.004 v 2.116 z" /></g><g
           transform="translate(371.9692,52.2462)"
           id="g108"><path
             id="path110"
             style="fill:#23498c;fill-opacity:1;fill-rule:nonzero;stroke:none"
             d="m 0,0 c 0,-4.584 -0.139,-5.288 -1.056,-6.911 -1.977,-3.314 -5.432,-5.502 -8.748,-5.502 -6.205,0 -10.649,5.997 -10.649,14.389 0,7.688 3.809,12.201 10.156,12.201 2.681,0 5.502,-0.916 7.97,-2.609 C -0.847,10.581 0,9.664 0,9.1 Z m 8.537,-13.471 c -2.397,0.143 -2.612,0.636 -2.612,5.078 v 43.449 l -0.002,0.002 v 0.105 l -0.467,0.5 -11.868,-1.119 v -1.905 c 0.622,-0.044 1.438,-0.126 2.445,-0.249 1.007,-0.122 1.714,-0.326 2.111,-0.616 C -1.3,31.396 -0.852,31.22 -0.511,30.467 -0.183,29.747 -0.015,29.03 0,28.311 V 15.235 c -3.948,1.694 -5.923,2.258 -8.391,2.258 -1.906,0 -3.596,-0.424 -5.361,-1.34 l -6.208,-3.245 c -4.018,-2.117 -6.629,-7.265 -6.629,-13.26 0,-5.642 1.905,-10.297 5.36,-13.119 2.399,-2.045 5.715,-2.96 10.299,-2.96 1.409,0 3.031,0.279 3.386,0.561 l 7.828,6.56 -0.002,-6.488 c 0.018,0.002 0.035,0.004 0.052,0.004 h 11.38 c 0.022,0 0.044,-0.002 0.067,-0.004 v 2.116 z" /></g><g
           transform="translate(188.9393,52.543)"
           id="g112"><path
             id="path114"
             style="fill:#23498c;fill-opacity:1;fill-rule:nonzero;stroke:none"
             d="m 0,0 16.959,-16.098 9.137,-0.029 0.015,1.483 c -1.747,0.12 -3.904,1.197 -6.16,3.383 L 9.48,-0.86 C 6.94,1.608 6.165,2.526 4.965,3.936 l 9.098,7.124 c 3.316,2.539 5.219,3.315 7.618,3.315 V 16.49 H 14.627 C 10.115,11.976 6.799,8.873 4.047,6.687 L -1.101,2.526 v 24.052 h 0.002 v 8.288 l -0.467,0.5 -11.868,-1.118 v -1.92 c 0.622,-0.045 1.438,-0.127 2.445,-0.249 1.007,-0.123 1.713,-0.326 2.11,-0.616 0.555,-0.378 1.003,-0.554 1.346,-1.307 0.344,-0.755 0.496,-1.508 0.496,-2.263 v -1.456 l 0.011,10e-4 V -8.69 c 0,-4.442 -0.21,-4.935 -2.608,-5.078 l -3.003,-0.211 v -2.116 c 0.031,0.002 0.062,0.004 0.093,0.004 H 4.524 c 0.029,0 0.058,-0.002 0.089,-0.004 v 0.004 0.936 1.176 l -3.104,0.211 c -2.398,0.143 -2.61,0.636 -2.61,5.078 v 7.827 z" /></g><g
           transform="translate(33.0349,68.1852)"
           id="g116"><path
             id="path118"
             style="fill:#23498c;fill-opacity:1;fill-rule:nonzero;stroke:none"
             d="M 0,0 -9.166,0.787 -10.687,0.793 -19.873,0 v 11.076 l 1.358,0.097 -0.004,-9.817 2.062,0.128 c 2.038,0.079 3.781,0.514 4.012,0.588 0.59,0.163 1.062,0.155 1.366,-0.025 0.154,-0.095 0.25,-0.222 0.312,-0.33 h 1.675 v 0.011 c 0.062,0.108 0.158,0.23 0.309,0.319 0.304,0.18 0.775,0.188 1.364,0.025 0.23,-0.074 1.974,-0.509 4.012,-0.588 L -1.353,1.356 -1.336,11.262 0,11.138 Z m -16.66,12.57 c 2.194,0.086 4.072,0.681 4.319,0.761 0.635,0.176 1.143,0.165 1.471,-0.028 0.253,-0.152 0.369,-0.392 0.41,-0.517 V 3.303 c -0.667,0.242 -1.46,0.238 -2.366,-0.016 L -12.871,3.274 C -12.887,3.27 -14.67,2.677 -16.712,2.595 h -0.445 l 0.021,9.975 z m 7.334,0.388 c 0.069,0.115 0.172,0.244 0.334,0.341 0.326,0.195 0.833,0.204 1.467,0.028 0.248,-0.079 2.124,-0.673 4.315,-0.76 h 0.481 L -2.74,2.6 h -0.418 c -2.039,0.081 -3.82,0.673 -3.838,0.677 L -7.039,3.289 C -7.907,3.536 -8.674,3.549 -9.326,3.34 Z M 1.352,12.133 h 0.015 l -2.709,0.237 -0.003,1.368 -2.016,0.124 c -1.895,0.079 -3.551,0.627 -3.568,0.632 l -0.039,0.014 c -1.069,0.298 -1.97,0.227 -2.68,-0.215 -0.105,-0.065 -0.197,-0.135 -0.284,-0.207 -0.087,0.072 -0.181,0.142 -0.285,0.207 -0.709,0.442 -1.61,0.513 -2.68,0.215 l -0.042,-0.014 c -0.013,-0.005 -1.67,-0.553 -3.566,-0.632 l -2.014,-0.124 0.003,-1.372 -2.706,-0.233 h 0.002 V -1.164 l 9.754,0.658 0.21,-0.456 h 2.673 l 0.2,0.456 9.752,-0.658 v 13.297 z" /></g></g></g></g></svg>